<?xml version="1.0" standalone="no"?><svg xmlns="http://www.w3.org/2000/svg" viewBox="0 0 1440 320"><path fill="#040ce7" fill-opacity="1" d="M0,128L0,32L36.9,32L36.9,32L73.8,32L73.8,288L110.8,288L110.8,192L147.7,192L147.7,224L184.6,224L184.6,160L221.5,160L221.5,128L258.5,128L258.5,96L295.4,96L295.4,64L332.3,64L332.3,256L369.2,256L369.2,32L406.2,32L406.2,128L443.1,128L443.1,192L480,192L480,128L516.9,128L516.9,128L553.8,128L553.8,288L590.8,288L590.8,224L627.7,224L627.7,288L664.6,288L664.6,288L701.5,288L701.5,96L738.5,96L738.5,128L775.4,128L775.4,128L812.3,128L812.3,256L849.2,256L849.2,96L886.2,96L886.2,288L923.1,288L923.1,0L960,0L960,0L996.9,0L996.9,288L1033.8,288L1033.8,224L1070.8,224L1070.8,128L1107.7,128L1107.7,288L1144.6,288L1144.6,96L1181.5,96L1181.5,320L1218.5,320L1218.5,96L1255.4,96L1255.4,256L1292.3,256L1292.3,128L1329.2,128L1329.2,224L1366.2,224L1366.2,160L1403.1,160L1403.1,32L1440,32L1440,320L1403.1,320L1403.1,320L1366.2,320L1366.2,320L1329.2,320L1329.2,320L1292.3,320L1292.3,320L1255.4,320L1255.4,320L1218.5,320L1218.5,320L1181.5,320L1181.5,320L1144.6,320L1144.6,320L1107.7,320L1107.7,320L1070.8,320L1070.8,320L1033.8,320L1033.8,320L996.9,320L996.9,320L960,320L960,320L923.1,320L923.1,320L886.2,320L886.2,320L849.2,320L849.2,320L812.3,320L812.3,320L775.4,320L775.4,320L738.5,320L738.5,320L701.5,320L701.5,320L664.6,320L664.6,320L627.7,320L627.7,320L590.8,320L590.8,320L553.8,320L553.8,320L516.9,320L516.9,320L480,320L480,320L443.1,320L443.1,320L406.2,320L406.2,320L369.2,320L369.2,320L332.3,320L332.3,320L295.4,320L295.4,320L258.5,320L258.5,320L221.5,320L221.5,320L184.6,320L184.6,320L147.7,320L147.7,320L110.8,320L110.8,320L73.8,320L73.8,320L36.9,320L36.9,320L0,320L0,320Z"></path></svg>