<?xml version="1.0" standalone="no"?><svg xmlns="http://www.w3.org/2000/svg" viewBox="0 0 1440 320"><path fill="#040ce7" fill-opacity="1" d="M0,96L40,90.7C80,85,160,75,240,64C320,53,400,43,480,69.3C560,96,640,160,720,192C800,224,880,224,960,218.7C1040,213,1120,203,1200,186.7C1280,171,1360,149,1400,138.7L1440,128L1440,320L1400,320C1360,320,1280,320,1200,320C1120,320,1040,320,960,320C880,320,800,320,720,320C640,320,560,320,480,320C400,320,320,320,240,320C160,320,80,320,40,320L0,320Z"></path></svg>