<?xml version="1.0" standalone="no"?><svg xmlns="http://www.w3.org/2000/svg" viewBox="0 0 1440 320"><path fill="#040ce7" fill-opacity="1" d="M0,192L0,32L96,32L96,160L192,160L192,96L288,96L288,32L384,32L384,160L480,160L480,288L576,288L576,64L672,64L672,128L768,128L768,256L864,256L864,128L960,128L960,224L1056,224L1056,160L1152,160L1152,288L1248,288L1248,64L1344,64L1344,160L1440,160L1440,0L1344,0L1344,0L1248,0L1248,0L1152,0L1152,0L1056,0L1056,0L960,0L960,0L864,0L864,0L768,0L768,0L672,0L672,0L576,0L576,0L480,0L480,0L384,0L384,0L288,0L288,0L192,0L192,0L96,0L96,0L0,0L0,0Z"></path></svg>