<?xml version="1.0" standalone="no"?><svg xmlns="http://www.w3.org/2000/svg" viewBox="0 0 1440 320"><path fill="#040ce7" fill-opacity="1" d="M0,128L0,32L36.9,32L36.9,32L73.8,32L73.8,288L110.8,288L110.8,192L147.7,192L147.7,224L184.6,224L184.6,160L221.5,160L221.5,128L258.5,128L258.5,96L295.4,96L295.4,64L332.3,64L332.3,256L369.2,256L369.2,32L406.2,32L406.2,128L443.1,128L443.1,192L480,192L480,128L516.9,128L516.9,128L553.8,128L553.8,288L590.8,288L590.8,224L627.7,224L627.7,288L664.6,288L664.6,288L701.5,288L701.5,96L738.5,96L738.5,128L775.4,128L775.4,128L812.3,128L812.3,256L849.2,256L849.2,96L886.2,96L886.2,288L923.1,288L923.1,0L960,0L960,0L996.9,0L996.9,288L1033.8,288L1033.8,224L1070.8,224L1070.8,128L1107.7,128L1107.7,288L1144.6,288L1144.6,96L1181.5,96L1181.5,320L1218.5,320L1218.5,96L1255.4,96L1255.4,256L1292.3,256L1292.3,128L1329.2,128L1329.2,224L1366.2,224L1366.2,160L1403.1,160L1403.1,32L1440,32L1440,0L1403.1,0L1403.1,0L1366.2,0L1366.2,0L1329.2,0L1329.2,0L1292.3,0L1292.3,0L1255.4,0L1255.4,0L1218.5,0L1218.5,0L1181.5,0L1181.5,0L1144.6,0L1144.6,0L1107.7,0L1107.7,0L1070.8,0L1070.8,0L1033.8,0L1033.8,0L996.9,0L996.9,0L960,0L960,0L923.1,0L923.1,0L886.2,0L886.2,0L849.2,0L849.2,0L812.3,0L812.3,0L775.4,0L775.4,0L738.5,0L738.5,0L701.5,0L701.5,0L664.6,0L664.6,0L627.7,0L627.7,0L590.8,0L590.8,0L553.8,0L553.8,0L516.9,0L516.9,0L480,0L480,0L443.1,0L443.1,0L406.2,0L406.2,0L369.2,0L369.2,0L332.3,0L332.3,0L295.4,0L295.4,0L258.5,0L258.5,0L221.5,0L221.5,0L184.6,0L184.6,0L147.7,0L147.7,0L110.8,0L110.8,0L73.8,0L73.8,0L36.9,0L36.9,0L0,0L0,0Z"></path></svg>